# xmcd
#
# Track frame offsets:
#	150
#	29162
#	50729
#	77972
#	101781
#	133314
#	166383
#	190391
#	211928
#	226572
#	250206
#	273767
#	300106
#
# Disc length: 4181 seconds
#
# Revision: 0
# Processed by: cddbd v1.5.2PL0 Copyright (c) Steve Scherf et al.
# Submitted via: EasyCDDAExtractor 11.5.3.1
#
DISCID=b210530d
DTITLE=Various Artist - Ken's Club Mix - Volume 1
DYEAR=2008
DGENRE=Dance
TTITLE0=Elvis Presley - Rubberneckin (Ultimix)
TTITLE1=Jennifer Lopez - Do It Well (Moto Blanco Mix - Ultimix)
TTITLE2=Jennifer Lopez - Hold It Dont Drop It (Moto Blanco Mix - Ultimix)
TTITLE3=Leona Lewis - Bleeding Love (Moto Blanco Mix - Ultimix)
TTITLE4=Madonna - Nothing Really Matters (Club 69 Vocal Club Mix)
TTITLE5=Chris Lake Featuring Emma Hewitt - Carry Me Away (Original Mix)
TTITLE6=Hilary Duff - So Yesterday (Ultimix)
TTITLE7=iio - Rapture (Ultimix)
TTITLE8=Freestylers - Dont Stop (Ultimix)
TTITLE9=Michael Jackson - Wanna Be Startin Somethin 2008 (Johnny Vicious Mix -
TTITLE9=Ultimix)
TTITLE10=Donna Summers - I'm A Fire (Solitaire Mix - Ultimix)
TTITLE11=Pamala Stanley - Coming Out Of Hiding 2002 (Ultimix)
TTITLE12=Robyn - Handle Me (Soul Seekerz Radio Edit)
EXTD=
EXTT0=
EXTT1=
EXTT2=
EXTT3=
EXTT4=
EXTT5=
EXTT6=
EXTT7=
EXTT8=
EXTT9=
EXTT10=
EXTT11=
EXTT12=
PLAYORDER=
